HIERARCHY
ROOT Hips
{
	OFFSET 0.000000 0.000000 0.000000
	CHANNELS 6 Xposition Yposition Zposition Zrotation Yrotation Xrotation 
	JOINT LHipJoint
	{
		OFFSET 0.000000 0.000000 0.000000
		CHANNELS 3 Zrotation Yrotation Xrotation
		JOINT LeftUpLeg
		{
			OFFSET 1.363060 -1.794630 0.839290
			CHANNELS 3 Zrotation Yrotation Xrotation
			JOINT LeftLeg
			{
				OFFSET 2.448110 -6.726130 0.000000
				CHANNELS 3 Zrotation Yrotation Xrotation
				JOINT LeftFoot
				{
					OFFSET 2.562200 -7.039590 0.000000
					CHANNELS 3 Zrotation Yrotation Xrotation
					JOINT LeftToeBase
					{
						OFFSET 0.157640 -0.433110 2.322550
						CHANNELS 3 Zrotation Yrotation Xrotation
						End Site
						{
							OFFSET 0.000000 0.000000 0.000000
						}
					}
				}
			}
		}
	}
	JOINT RHipJoint
	{
		OFFSET 0.000000 0.000000 0.000000
		CHANNELS 3 Zrotation Yrotation Xrotation
		JOINT RightUpLeg
		{
			OFFSET -1.305520 -1.794630 0.839290
			CHANNELS 3 Zrotation Yrotation Xrotation
			JOINT RightLeg
			{
				OFFSET -2.542530 -6.985550 0.000000
				CHANNELS 3 Zrotation Yrotation Xrotation
				JOINT RightFoot
				{
					OFFSET -2.568260 -7.056230 0.000000
					CHANNELS 3 Zrotation Yrotation Xrotation
					JOINT RightToeBase
					{
						OFFSET -0.164730 -0.452590 2.363150
						CHANNELS 3 Zrotation Yrotation Xrotation
						End Site
						{
							OFFSET 0.000000 0.000000 0.000000
						}
					}
				}
			}
		}
	}
	JOINT LowerBack
	{
		OFFSET 0.000000 0.000000 0.000000
		CHANNELS 3 Zrotation Yrotation Xrotation
		JOINT Spine
		{
			OFFSET 0.028270 2.035590 -0.193380
			CHANNELS 3 Zrotation Yrotation Xrotation
			JOINT Spine1
			{
				OFFSET 0.056720 2.048850 -0.042750
				CHANNELS 3 Zrotation Yrotation Xrotation
				JOINT Neck
				{
					OFFSET 0.000000 0.000000 0.000000
					CHANNELS 3 Zrotation Yrotation Xrotation
					JOINT Neck1
					{
						OFFSET -0.054170 1.746240 0.172020
						CHANNELS 3 Zrotation Yrotation Xrotation
						JOINT Head
						{
							OFFSET 0.104070 1.761360 -0.123970
							CHANNELS 3 Zrotation Yrotation Xrotation
							End Site
							{
								OFFSET 0.000000 0.000000 0.000000
							}
						}
					}
				}
				JOINT LeftShoulder
				{
					OFFSET 0.000000 0.000000 0.000000
					CHANNELS 3 Zrotation Yrotation Xrotation
					JOINT LeftArm
					{
						OFFSET 3.362410 1.200890 -0.311210
						CHANNELS 3 Zrotation Yrotation Xrotation
						JOINT LeftForeArm
						{
							OFFSET 4.983000 -0.000000 -0.000000
							CHANNELS 3 Zrotation Yrotation Xrotation
							JOINT LeftHand
							{
								OFFSET 3.483560 -0.000000 -0.000000
								CHANNELS 3 Zrotation Yrotation Xrotation
								JOINT LeftFingerBase
								{
									OFFSET 0.000000 0.000000 0.000000
									CHANNELS 3 Zrotation Yrotation Xrotation
									JOINT LeftHandIndex1
									{
										OFFSET 0.715260 -0.000000 -0.000000
										CHANNELS 3 Zrotation Yrotation Xrotation
										End Site
										{
											OFFSET 0.000000 0.000000 0.000000
										}
									}
								}
								JOINT LThumb
								{
									OFFSET 0.000000 0.000000 0.000000
									CHANNELS 3 Zrotation Yrotation Xrotation
									End Site
									{
										OFFSET 0.000000 0.000000 0.000000
									}
								}
							}
						}
					}
				}
				JOINT RightShoulder
				{
					OFFSET 0.000000 0.000000 0.000000
					CHANNELS 3 Zrotation Yrotation Xrotation
					JOINT RightArm
					{
						OFFSET -3.136600 1.374050 -0.404650
						CHANNELS 3 Zrotation Yrotation Xrotation
						JOINT RightForeArm
						{
							OFFSET -5.241900 -0.000000 -0.000000
							CHANNELS 3 Zrotation Yrotation Xrotation
							JOINT RightHand
							{
								OFFSET -3.444170 -0.000000 -0.000000
								CHANNELS 3 Zrotation Yrotation Xrotation
								JOINT RightFingerBase
								{
									OFFSET 0.000000 0.000000 0.000000
									CHANNELS 3 Zrotation Yrotation Xrotation
									JOINT RightHandIndex1
									{
										OFFSET -0.622530 -0.000000 -0.000000
										CHANNELS 3 Zrotation Yrotation Xrotation
										End Site
										{
											OFFSET 0.000000 0.000000 0.000000
										}
									}
								}
								JOINT RThumb
								{
									OFFSET 0.000000 0.000000 0.000000
									CHANNELS 3 Zrotation Yrotation Xrotation
									End Site
									{
										OFFSET 0.000000 0.000000 0.000000
									}
								}
							}
						}
					}
				}
			}
		}
	}
}
MOTION
Frames: 7
Frame Time: 0.008333
5.334510 16.869981 4.169770 -146.607810 -87.450363 159.657770 -9.864726 2.283434 4.248324 -10.788138 6.714215 -39.508948 -2.255875 0.694000 28.840505 1.436870 6.274465 -8.501363 0.044300 -0.000000 -34.940800 11.162968 -1.211020 -0.083572 4.328458 -19.404684 -37.462626 -0.644956 -3.700607 62.880495 -1.573561 -7.871825 1.635171 -1.323299 0.000000 -70.745000 -4.678653 -1.665119 -6.907485 -1.731061 -1.487235 -4.420487 -6.615755 -1.464854 -1.520083 11.470306 -8.544129 -6.904069 -3.048092 -0.233762 0.158729 0.000000 0.000000 0.000000 3.654131 7.493741 0.573174 -55.542403 -20.072366 -18.204281 -179.496616 -76.377125 179.946371 5.832910 18.717402 0.967982 -0.108227 0.221610 -0.000000 0.000000 0.000000 0.000000 0.000000 0.000000 0.000000 9.652287 -2.007302 -0.447327 66.817989 22.725701 7.389772 0.008014 89.050793 0.016351 2.480982 4.998796 0.126712 -0.107431 -0.536743 0.000000 0.000000 0.000000 0.000000 0.000000 0.000000 0.000000 
5.253433 16.927674 4.154574 -145.775107 -87.425718 158.784618 -9.892827 2.345513 4.248983 -10.701760 7.092111 -38.620881 -2.296745 0.578744 27.538408 1.378588 6.145002 -7.884729 0.122200 0.000000 -36.016000 11.095010 -1.212511 0.034124 4.469921 -19.428572 -37.582202 -0.434033 -3.599387 60.761551 -1.467089 -7.234895 1.261350 -1.200400 0.000000 -70.975500 -4.570917 -1.651634 -7.058324 -1.733225 -1.488897 -4.455882 -6.682428 -1.461552 -1.569066 11.330982 -8.420017 -6.774887 -3.061428 -0.236419 0.196820 0.000000 0.000000 0.000000 4.019366 7.234636 0.566478 -54.401586 -21.075957 -17.920767 -179.522454 -76.540249 179.947735 5.669155 18.602925 0.934060 -0.103401 0.231474 -0.000000 0.000000 0.000000 0.000000 0.000000 0.000000 0.000000 9.554257 -1.921126 -0.474633 66.688244 23.251341 7.061116 0.008099 89.295185 0.015640 2.325119 5.049526 0.120517 -0.109754 -0.543808 0.000000 0.000000 0.000000 0.000000 0.000000 0.000000 0.000000 
5.172970 16.985473 4.138448 -145.063737 -87.391266 158.044917 -9.930914 2.405519 4.244796 -10.616725 7.513246 -37.757722 -2.336114 0.466345 26.212176 1.310732 5.986303 -7.160183 0.210900 -0.000000 -37.042600 11.018923 -1.227442 0.175417 4.603793 -19.371942 -37.596841 -0.210260 -3.477407 58.411955 -1.368068 -6.650467 0.907987 -1.097600 -0.000000 -71.207300 -4.451267 -1.618670 -7.230046 -1.734661 -1.473805 -4.494627 -6.752299 -1.441517 -1.612649 11.186462 -8.294973 -6.653220 -3.070730 -0.238710 0.232962 0.000000 0.000000 0.000000 4.334730 7.030090 0.555898 -53.191747 -22.172398 -17.638416 -179.548911 -76.708896 179.948612 5.544028 18.404019 0.902546 -0.099592 0.243386 -0.000000 0.000000 0.000000 0.000000 0.000000 0.000000 0.000000 9.429027 -1.825450 -0.506120 66.536187 23.721247 6.674606 0.007039 89.607107 0.013780 2.163992 5.092656 0.113724 -0.112249 -0.551069 0.000000 0.000000 0.000000 0.000000 0.000000 0.000000 0.000000 
5.093141 17.043003 4.121204 -144.522008 -87.353715 157.474395 -9.978757 2.464289 4.231458 -10.530949 7.973771 -36.896601 -2.372999 0.358153 24.862033 1.233819 5.802891 -6.317796 0.309199 -0.000000 -38.058000 10.937052 -1.254130 0.333145 4.712431 -19.246702 -37.472295 0.026304 -3.333057 55.821336 -1.272744 -6.095056 0.578015 -1.009400 -0.000001 -71.465301 -4.331134 -1.569841 -7.408676 -1.737101 -1.444053 -4.534662 -6.823169 -1.406994 -1.654244 11.042470 -8.171621 -6.536413 -3.076707 -0.240704 0.267715 0.000000 0.000000 0.000000 4.617826 6.861684 0.540333 -51.937564 -23.334356 -17.377482 -179.576827 -76.877922 179.949294 5.436332 18.094274 0.868737 -0.096034 0.257952 -0.000000 0.000000 0.000000 0.000000 0.000000 0.000000 0.000000 9.286423 -1.725863 -0.539111 66.353656 24.145870 6.240723 0.007040 89.978330 0.012050 1.986407 5.145017 0.106233 -0.114609 -0.558797 0.000000 0.000000 0.000000 0.000000 0.000000 0.000000 0.000000 
5.013648 17.099559 4.102959 -143.803753 -87.317902 156.737043 -10.026921 2.524956 4.215287 -10.443042 8.455655 -36.081008 -2.407229 0.258454 23.544742 1.149686 5.590173 -5.386484 0.411100 0.000001 -38.907400 10.857494 -1.291630 0.510648 4.805508 -19.059692 -37.226497 0.274420 -3.165935 52.999202 -1.177107 -5.544367 0.293917 -0.933000 -0.000000 -71.720500 -4.200480 -1.509371 -7.605446 -1.738492 -1.405119 -4.577157 -6.895594 -1.363166 -1.689866 10.900805 -8.046079 -6.426919 -3.078767 -0.242331 0.300502 0.000000 0.000000 0.000000 4.854500 6.748135 0.521842 -50.631408 -24.582495 -17.137155 -179.605489 -77.054710 179.949689 5.351882 17.731148 0.836531 -0.092952 0.274024 -0.000000 0.000000 0.000000 0.000000 0.000000 0.000000 0.000000 9.125720 -1.620633 -0.576983 66.136788 24.523052 5.764648 -179.991663 89.585431 -179.989958 1.784027 5.212547 0.097546 -0.116680 -0.567053 0.000000 0.000000 0.000000 0.000000 0.000000 0.000000 0.000000 
4.934349 17.154748 4.083335 -142.949727 -87.297201 155.869771 -10.072864 2.588834 4.197669 -10.357085 8.939646 -35.307937 -2.439014 0.168687 22.277896 1.060892 5.353301 -4.387984 0.511600 0.000000 -39.593300 10.783363 -1.337590 0.703219 4.868763 -18.830538 -36.849624 0.532113 -2.975055 49.949246 -1.076038 -4.971584 0.096415 -0.865899 0.000000 -71.983400 -4.073428 -1.443227 -7.815873 -1.741109 -1.361450 -4.620902 -6.968691 -1.314582 -1.719139 10.766333 -7.919350 -6.323298 -3.077215 -0.243621 0.331680 0.000000 0.000000 0.000000 5.052367 6.685882 0.500362 -49.281236 -25.907878 -16.927835 -179.635265 -77.239489 179.949951 5.280325 17.340063 0.805626 -0.089990 0.291030 -0.000000 0.000000 0.000000 0.000000 0.000000 0.000000 0.000000 8.954825 -1.514640 -0.620145 65.884155 24.859585 5.255581 -179.988125 89.090003 -179.992330 1.549662 5.304539 0.087262 -0.118255 -0.575942 0.000000 0.000000 0.000000 0.000000 0.000000 0.000000 0.000000 
4.855317 17.208295 4.062175 -141.693825 -87.292011 154.595740 -10.109336 2.656518 4.176761 -10.261347 9.416584 -34.559483 -2.468109 0.088501 21.064812 0.969572 5.095660 -3.345930 0.605800 0.000001 -40.192400 10.723351 -1.390280 0.906468 4.897992 -18.565401 -36.317051 0.795928 -2.758311 46.666188 -0.966100 -4.366535 0.040740 -0.808600 0.000000 -72.285000 -3.947179 -1.374342 -8.031296 -1.743985 -1.315798 -4.664727 -7.040487 -1.263838 -1.744368 10.642304 -7.794496 -6.221544 -3.072738 -0.244678 0.362411 0.000000 0.000000 0.000000 5.230159 6.656759 0.473546 -47.916950 -27.278282 -16.762804 -179.667180 -77.431627 179.950287 5.211076 16.926826 0.774322 -0.086599 0.308787 -0.000000 0.000000 0.000000 0.000000 0.000000 0.000000 0.000000 8.781243 -1.413893 -0.667588 65.593402 25.163987 4.723052 -179.981671 88.547730 -179.995130 1.279303 5.430420 0.075081 -0.119149 -0.585537 0.000000 0.000000 0.000000 0.000000 0.000000 0.000000 0.000000 
